<svg width="211" height="65" viewBox="0 0 211 65" fill="none" xmlns="http://www.w3.org/2000/svg">
<g filter="url(#filter0_d_159_620)">
<path d="M65.7115 47.5494C64.8068 47.5494 64.1445 47.4201 63.7245 47.1617C63.3368 46.9032 63.0784 46.5478 62.9492 46.0955C62.8522 45.6109 62.8038 45.1101 62.8038 44.5932V16.6309C62.8038 16.114 62.8684 15.6455 62.9976 15.2255C63.1268 14.7732 63.3853 14.4178 63.773 14.1594C64.193 13.8686 64.8553 13.7232 65.7599 13.7232H76.1307C77.6169 13.7232 79.0222 13.9655 80.3469 14.4501C81.7038 14.9024 82.9153 15.6132 83.9815 16.5824C85.0476 17.5194 85.8876 18.7147 86.5015 20.1686C87.1476 21.5901 87.4707 23.254 87.4707 25.1601C87.4707 26.4201 87.2769 27.6801 86.8892 28.9401C86.5015 30.1678 85.9199 31.3147 85.1445 32.3809C84.4015 33.4147 83.4484 34.3032 82.2853 35.0463C81.1222 35.7894 79.7492 36.274 78.1661 36.5001H68.6676V44.6417C68.6676 45.1586 68.603 45.6432 68.4738 46.0955C68.3769 46.5478 68.1184 46.9032 67.6984 47.1617C67.3107 47.4201 66.6484 47.5494 65.7115 47.5494ZM86.3561 46.8224C85.4192 47.4686 84.6438 47.7109 84.0299 47.5494C83.4484 47.3878 82.8669 46.8709 82.2853 45.9986L74.1438 33.6894L80.6861 32.817L87.1315 42.6063C87.5838 43.2524 87.8584 43.8017 87.9553 44.254C88.0522 44.7063 87.9715 45.1263 87.713 45.514C87.4545 45.9017 87.0022 46.3378 86.3561 46.8224ZM68.6676 30.6847H76.8576C77.4392 30.6847 78.0045 30.5878 78.5538 30.394C79.1353 30.1678 79.6522 29.8286 80.1045 29.3763C80.5569 28.8917 80.9122 28.3101 81.1707 27.6317C81.4615 26.9209 81.6069 26.0809 81.6069 25.1117C81.6069 23.9486 81.3807 22.9632 80.9284 22.1555C80.4761 21.3155 79.8299 20.6855 78.9899 20.2655C78.1822 19.8132 77.1969 19.587 76.0338 19.587H68.6676V30.6847ZM102.864 47.8886C100.764 47.8886 98.9221 47.5494 97.3391 46.8709C95.7883 46.1924 94.4798 45.2717 93.4137 44.1086C92.3798 42.9132 91.5883 41.5886 91.0391 40.1347C90.5221 38.6486 90.2637 37.114 90.2637 35.5309C90.2637 33.2047 90.7967 31.137 91.8629 29.3278C92.9291 27.5186 94.3991 26.097 96.2729 25.0632C98.1791 24.0294 100.36 23.5124 102.815 23.5124C104.56 23.5124 106.094 23.787 107.419 24.3363C108.744 24.8855 109.842 25.6124 110.714 26.517C111.619 27.3894 112.298 28.3586 112.75 29.4247C113.234 30.4909 113.477 31.5247 113.477 32.5263C113.477 34.2386 113.057 35.4824 112.217 36.2578C111.409 37.0332 110.391 37.4209 109.164 37.4209H96.3698C96.4021 38.5194 96.7414 39.4724 97.3875 40.2801C98.066 41.0878 98.906 41.7178 99.9075 42.1701C100.941 42.5901 101.991 42.8001 103.058 42.8001C103.865 42.8001 104.576 42.7517 105.19 42.6547C105.836 42.5578 106.385 42.4447 106.838 42.3155C107.29 42.154 107.678 41.9924 108.001 41.8309C108.356 41.6694 108.679 41.524 108.97 41.3947C109.261 41.2655 109.535 41.1847 109.794 41.1524C110.149 41.1201 110.504 41.2009 110.86 41.3947C111.215 41.5886 111.506 41.9278 111.732 42.4124C111.926 42.7355 112.055 43.0424 112.12 43.3332C112.217 43.5917 112.265 43.8501 112.265 44.1086C112.265 44.7547 111.878 45.3686 111.102 45.9501C110.327 46.4994 109.228 46.9517 107.807 47.3071C106.418 47.6947 104.77 47.8886 102.864 47.8886ZM96.3698 33.9801H106.304C106.854 33.9801 107.274 33.8994 107.564 33.7378C107.855 33.544 108.001 33.1563 108.001 32.5747C108.001 31.8317 107.774 31.1694 107.322 30.5878C106.87 29.974 106.256 29.5055 105.481 29.1824C104.705 28.827 103.801 28.6494 102.767 28.6494C101.571 28.6494 100.489 28.8917 99.5198 29.3763C98.5506 29.8286 97.7752 30.4586 97.1937 31.2663C96.6444 32.074 96.3698 32.9786 96.3698 33.9801ZM137.323 47.5009C136.386 47.5009 135.691 47.3232 135.239 46.9678C134.787 46.6124 134.561 46.1278 134.561 45.514L134.9 43.9147C134.641 44.3347 134.205 44.8355 133.591 45.4171C132.977 45.9663 132.17 46.4671 131.168 46.9194C130.167 47.3394 128.955 47.5494 127.534 47.5494C126.015 47.5494 124.577 47.2424 123.221 46.6286C121.896 45.9824 120.717 45.1101 119.683 44.0117C118.681 42.8809 117.874 41.6047 117.26 40.1832C116.678 38.7294 116.387 37.1786 116.387 35.5309C116.387 33.9478 116.678 32.4617 117.26 31.0724C117.874 29.6509 118.697 28.3909 119.731 27.2924C120.765 26.194 121.944 25.3378 123.269 24.724C124.626 24.0778 126.047 23.7547 127.534 23.7547C128.858 23.7547 129.973 23.9324 130.877 24.2878C131.814 24.6432 132.606 25.0955 133.252 25.6447C133.898 26.1617 134.431 26.7109 134.851 27.2924L134.561 25.887C134.561 25.1763 134.787 24.6432 135.239 24.2878C135.691 23.9001 136.402 23.7063 137.371 23.7063C138.276 23.7063 138.922 23.8517 139.31 24.1424C139.697 24.4009 139.94 24.7724 140.037 25.257C140.134 25.7094 140.182 26.2263 140.182 26.8078V44.5447C140.182 45.094 140.134 45.5947 140.037 46.0471C139.94 46.4994 139.681 46.8547 139.261 47.1132C138.874 47.3717 138.227 47.5009 137.323 47.5009ZM128.406 41.8794C129.504 41.8794 130.49 41.6047 131.362 41.0555C132.234 40.5063 132.929 39.7632 133.446 38.8263C133.995 37.857 134.27 36.7909 134.27 35.6278C134.27 34.3678 133.995 33.2694 133.446 32.3324C132.897 31.3955 132.17 30.6686 131.265 30.1517C130.393 29.6024 129.407 29.3278 128.309 29.3278C127.114 29.3278 126.047 29.6186 125.111 30.2001C124.174 30.7494 123.431 31.5086 122.881 32.4778C122.364 33.4147 122.106 34.4809 122.106 35.6763C122.106 36.8394 122.381 37.8894 122.93 38.8263C123.479 39.7632 124.222 40.5063 125.159 41.0555C126.128 41.6047 127.211 41.8794 128.406 41.8794ZM155.318 47.5494C153.832 47.5494 152.427 47.2424 151.102 46.6286C149.778 46.0147 148.615 45.1747 147.613 44.1086C146.611 43.0101 145.82 41.734 145.238 40.2801C144.657 38.794 144.366 37.2109 144.366 35.5309C144.366 33.9155 144.657 32.397 145.238 30.9755C145.82 29.5217 146.611 28.2617 147.613 27.1955C148.647 26.097 149.826 25.2409 151.151 24.627C152.475 24.0132 153.865 23.7063 155.318 23.7063C156.869 23.7063 158.258 24.0132 159.486 24.627C160.714 25.2409 161.748 26.097 162.588 27.1955C163.46 28.2617 164.122 29.5217 164.575 30.9755C165.027 32.397 165.269 33.9317 165.301 35.5794C165.301 37.227 165.075 38.7778 164.623 40.2317C164.203 41.6532 163.557 42.9132 162.685 44.0117C161.845 45.1101 160.795 45.9824 159.535 46.6286C158.307 47.2424 156.901 47.5494 155.318 47.5494ZM156.094 41.8794C157.225 41.8794 158.226 41.6209 159.098 41.104C160.003 40.5547 160.714 39.8117 161.231 38.8747C161.78 37.9378 162.055 36.8717 162.055 35.6763C162.055 34.4486 161.78 33.3663 161.231 32.4294C160.714 31.4924 160.003 30.7494 159.098 30.2001C158.226 29.6509 157.225 29.3763 156.094 29.3763C154.963 29.3763 153.945 29.6509 153.041 30.2001C152.136 30.717 151.409 31.4601 150.86 32.4294C150.343 33.3663 150.085 34.4486 150.085 35.6763C150.085 36.8717 150.343 37.9378 150.86 38.8747C151.409 39.8117 152.136 40.5547 153.041 41.104C153.978 41.6209 154.995 41.8794 156.094 41.8794ZM165.059 47.5494C164.155 47.5494 163.492 47.404 163.072 47.1132C162.652 46.7901 162.378 46.2894 162.248 45.6109V15.7586C162.248 15.2094 162.281 14.7247 162.345 14.3047C162.442 13.8524 162.685 13.497 163.072 13.2386C163.492 12.9478 164.138 12.8024 165.011 12.8024C165.948 12.8024 166.61 12.9317 166.998 13.1901C167.385 13.4486 167.628 13.804 167.725 14.2563C167.854 14.6763 167.918 15.1609 167.918 15.7101V44.5932C167.918 45.1424 167.87 45.6432 167.773 46.0955C167.676 46.5478 167.418 46.9032 166.998 47.1617C166.61 47.4201 165.964 47.5494 165.059 47.5494ZM175.827 47.5978C174.922 47.5978 174.26 47.4524 173.84 47.1617C173.42 46.9032 173.162 46.5478 173.065 46.0955C172.968 45.6432 172.919 45.1424 172.919 44.5932V16.6309C172.919 16.114 172.968 15.6294 173.065 15.177C173.194 14.7247 173.452 14.3694 173.84 14.1109C174.26 13.8524 174.939 13.7232 175.876 13.7232C176.78 13.7232 177.426 13.8524 177.814 14.1109C178.234 14.3694 178.492 14.7247 178.589 15.177C178.719 15.6294 178.783 16.1301 178.783 16.6794V44.6417C178.783 45.1909 178.719 45.6917 178.589 46.144C178.492 46.564 178.234 46.9032 177.814 47.1617C177.394 47.4524 176.732 47.5978 175.827 47.5978ZM186.616 47.5494C185.744 47.5494 185.098 47.404 184.678 47.1132C184.29 46.8547 184.048 46.5155 183.951 46.0955C183.854 45.6432 183.805 45.1424 183.805 44.5932V26.4686C183.805 25.9517 183.854 25.4832 183.951 25.0632C184.048 24.6432 184.306 24.3201 184.726 24.094C185.146 23.8355 185.792 23.7063 186.665 23.7063C187.44 23.7063 188.022 23.8032 188.409 23.997C188.797 24.1909 189.055 24.4332 189.185 24.724C189.314 25.0147 189.379 25.3055 189.379 25.5963C189.411 25.887 189.443 26.1132 189.475 26.2747L189.282 27.8255C189.475 27.3086 189.799 26.8078 190.251 26.3232C190.703 25.8386 191.252 25.4024 191.899 25.0147C192.545 24.5947 193.239 24.2717 193.982 24.0455C194.758 23.787 195.549 23.6578 196.357 23.6578C197.875 23.6578 199.232 23.9324 200.428 24.4817C201.623 25.0309 202.641 25.8063 203.481 26.8078C204.353 27.8094 205.015 29.0047 205.468 30.394C205.92 31.7509 206.146 33.2855 206.146 34.9978V44.6417C206.146 45.1909 206.082 45.6917 205.952 46.144C205.855 46.564 205.613 46.9032 205.225 47.1617C204.838 47.4201 204.175 47.5494 203.239 47.5494C202.334 47.5494 201.672 47.404 201.252 47.1132C200.832 46.8547 200.573 46.5155 200.476 46.0955C200.379 45.6432 200.331 45.1424 200.331 44.5932V34.9494C200.331 33.7863 200.121 32.7847 199.701 31.9447C199.313 31.1047 198.732 30.4586 197.956 30.0063C197.213 29.554 196.26 29.3278 195.097 29.3278C193.966 29.3278 192.981 29.5701 192.141 30.0547C191.301 30.507 190.655 31.1532 190.202 31.9932C189.75 32.8332 189.524 33.8186 189.524 34.9494V44.6417C189.524 45.1909 189.475 45.6917 189.379 46.144C189.282 46.564 189.023 46.9032 188.603 47.1617C188.215 47.4201 187.553 47.5494 186.616 47.5494Z" fill="#5D2983"/>
</g>
<g clip-path="url(#clip0_159_620)">
<path d="M54.9141 39.0715L54.7948 11.2024C65.3731 2.26693 83.2115 6.18704 90.2439 13.3875C84.6592 8.91973 67.8889 4.02366 57.0016 12.4386L54.9141 39.0715Z" fill="#5D2983"/>
<path d="M51.5849 39.0715L51.7096 11.2024C41.1259 2.26693 23.2875 6.18704 16.2551 13.3875C21.8398 8.91973 38.6101 4.02366 49.4975 12.4386L51.5849 39.0715Z" fill="#5D2983"/>
<mask id="mask0_159_620" style="mask-type:luminance" maskUnits="userSpaceOnUse" x="54" y="22" width="44" height="41">
<path d="M54.9196 22.2145H97.4877V62.3428H54.9196V22.2145Z" fill="white"/>
</mask>
<g mask="url(#mask0_159_620)">
<path d="M54.9412 54.1716C61.2632 49.7093 69.9872 49.0099 77.475 50.913C84.9682 52.8216 91.6373 57.17 97.4877 62.2396L92.4615 22.274L95.5412 57.5062C95.5412 57.5062 86.8497 50.2895 75.0568 48.8201C60.8945 47.058 54.9412 54.1716 54.9412 54.1716Z" fill="#5D2983"/>
</g>
<mask id="mask1_159_620" style="mask-type:luminance" maskUnits="userSpaceOnUse" x="9" y="21" width="44" height="43">
<path d="M9.00598 21.6994H52.7453V63.3404H9.00598V21.6994Z" fill="white"/>
</mask>
<g mask="url(#mask1_159_620)">
<path d="M51.5633 54.1719C45.2413 49.7096 36.5173 49.0101 29.0241 50.9133C21.5363 52.8218 14.8618 57.1703 9.01685 62.2398L14.043 22.2742L10.9633 57.5064C10.9633 57.5064 19.6494 50.2897 31.4423 48.8204C45.61 47.0582 51.5633 54.1719 51.5633 54.1719Z" fill="#5D2983"/>
</g>
<mask id="mask2_159_620" style="mask-type:luminance" maskUnits="userSpaceOnUse" x="10" y="53" width="86" height="12">
<path d="M10.8169 53.5104H95.628V64.7285H10.8169V53.5104Z" fill="white"/>
</mask>
<g mask="url(#mask2_159_620)">
<path d="M72.0532 53.5755C63.1069 53.3315 57.0071 57.4034 54.4967 59.4692C53.7756 60.0656 52.7292 60.0656 52.0026 59.4692C49.4976 57.4034 43.3925 53.3315 34.4516 53.5755C23.3364 53.8791 13.9455 61.6705 10.92 64.7285H13.8588C17.7138 61.1175 25.2667 55.9557 34.6359 55.9883C41.1098 56.01 46.0275 58.336 49.1777 60.4668C49.7037 60.8193 50.0127 61.4103 50.0127 62.0446C50.0127 63.0911 50.8586 63.9424 51.905 63.9424H54.5943C55.6408 63.9424 56.4866 63.0911 56.4866 62.0446C56.4866 61.4103 56.8011 60.8193 57.3216 60.4668C60.4718 58.336 65.3895 56.01 71.8634 55.9883C81.2381 55.9557 89.8482 61.2801 94.1858 64.7285H95.5793C92.5592 61.6705 83.1683 53.8791 72.0532 53.5755Z" fill="#5D2983"/>
</g>
</g>
<defs>
<filter id="filter0_d_159_620" x="58.496" y="12.8024" width="151.958" height="43.7015" filterUnits="userSpaceOnUse" color-interpolation-filters="sRGB">
<feFlood flood-opacity="0" result="BackgroundImageFix"/>
<feColorMatrix in="SourceAlpha" type="matrix" values="0 0 0 0 0 0 0 0 0 0 0 0 0 0 0 0 0 0 127 0" result="hardAlpha"/>
<feOffset dy="4.30769"/>
<feGaussianBlur stdDeviation="2.15385"/>
<feComposite in2="hardAlpha" operator="out"/>
<feColorMatrix type="matrix" values="0 0 0 0 0 0 0 0 0 0 0 0 0 0 0 0 0 0 0.25 0"/>
<feBlend mode="normal" in2="BackgroundImageFix" result="effect1_dropShadow_159_620"/>
<feBlend mode="normal" in="SourceGraphic" in2="effect1_dropShadow_159_620" result="shape"/>
</filter>
<clipPath id="clip0_159_620">
<rect width="104.103" height="62.4615" fill="white" transform="translate(0 2.26707)"/>
</clipPath>
</defs>
</svg>
